<?xml version="1.0" encoding="UTF-8"?>
<svg width="587px" height="91px" viewBox="0 0 587 91" version="1.1" xmlns="http://www.w3.org/2000/svg" xmlns:xlink="http://www.w3.org/1999/xlink">
    <title>Group</title>
    <g id="github" stroke="none" stroke-width="1" fill="none" fill-rule="evenodd">
        <g id="Relive" transform="translate(-347.000000, -275.000000)">
            <g id="Group" transform="translate(347.000000, 275.000000)">
                <path d="M160.686124,91 L165.675245,60.9628906 L174.152335,60.9628906 L185.057759,91 L211.725273,91 L198.965485,57.0527344 C209.341091,52.387207 216.581939,43.5449219 218.612909,30.9257812 C221.791817,11.5527344 210.312424,0 190.179334,0 L151.149397,0 L136.137883,91 L160.686124,91 Z M177.623699,42 L169.137883,42 L172.749794,20 L181.279128,20 C189.634394,20 194.160163,23.3709677 192.941687,31.1774194 C191.723211,38.983871 186.153033,42 177.623699,42 Z M285.983698,91 L289.331715,71.09375 L248.979292,71.09375 L251.446253,55.453125 L288.626869,55.453125 L291.974887,35.546875 L254.79427,35.546875 L257.261231,19.90625 L297.789865,19.90625 L301.137883,0 L236.115856,0 L221.137883,91 L285.983698,91 Z M359.754321,91 L363.137883,71.09375 L326.274869,71.09375 L338.028294,0 L313.274869,0 L298.137883,91 L359.754321,91 Z M393.959311,91 L409.137883,0 L384.316454,0 L369.137883,91 L393.959311,91 Z M466.399246,91 L511.137883,0 L483.484473,0 L454.421973,64.1621094 L453.717428,64.1621094 L445.791292,0 L418.137883,0 L432.933337,91 L466.399246,91 Z M570.983698,91 L574.331715,71.09375 L533.979292,71.09375 L536.446253,55.453125 L573.626869,55.453125 L576.974887,35.546875 L539.79427,35.546875 L542.261231,19.90625 L582.789865,19.90625 L586.137883,0 L521.115856,0 L506.137883,91 L570.983698,91 Z" id="RELIVE" fill="#000000" fill-rule="nonzero"></path>
                <polygon id="Rectangle" fill="#FF0000" points="15.06455 0 106 0 90.93545 91 0 91"></polygon>
            </g>
        </g>
    </g>
</svg>